<svg xmlns="http://www.w3.org/2000/svg" width="108" height="96.43" viewBox="0 0 108 96.43">
  <g id="Group_58" data-name="Group 58" transform="translate(-1000 -427)">
    <g id="allowances-3" transform="translate(1000 427)">
      <path id="Path_55" data-name="Path 55" d="M0,0H108V96H0Z" fill="none" fill-rule="evenodd" opacity="0.557"/>
      <path id="Path_56" data-name="Path 56" d="M54,4A46,46,0,1,1,8,50,46,46,0,0,1,54,4" fill="#f7f5f5" fill-rule="evenodd"/>
      <path id="Path_58" data-name="Path 58" d="M104.819,35.913l-8.2-1.276a2,2,0,0,0-2.278,1.634l-1.428,8.243a2,2,0,0,0,3.941.683l.716-4.135a16.494,16.494,0,1,1-13.9-7.6,2,2,0,1,0,0-4,20.549,20.549,0,1,0,17.585,9.942l2.951.459a2,2,0,0,0,.615-3.953" transform="translate(-7 -23)" fill="#008c73" fill-rule="evenodd"/>
    </g>
    <path id="Path_70" data-name="Path 70" d="M85.407,65.587H75.32V55.5a2,2,0,0,0-4,0V65.587H61.234a2,2,0,0,0,0,4H71.32V79.674a2,2,0,0,0,4,0V69.587H85.407a2,2,0,0,0,0-4" transform="translate(990 434)" fill="#b2b5b2" fill-rule="evenodd"/>
    <path id="Path_71" data-name="Path 71" d="M73.32,49.744A17.843,17.843,0,1,0,91.163,67.587,17.863,17.863,0,0,0,73.32,49.744m0,39.686A21.843,21.843,0,1,1,95.163,67.587,21.867,21.867,0,0,1,73.32,89.43M35.657,65.261,22.471,43.332,34.649,50.44a2,2,0,0,0,2.016,0l12.177-7.108Zm0-59,8.064,15.162,8.227,15.467L35.657,46.4,19.365,36.888,35.657,6.259ZM56.6,37.887a1.841,1.841,0,0,0,.011-.246c0-.062,0-.122,0-.183l-.008-.045a2,2,0,0,0-.348-.953L37.423,1.061a2,2,0,0,0-3.532,0l-18.83,35.4a2,2,0,0,0-.349.953l-.006.045c-.005.061,0,.121,0,.183a1.841,1.841,0,0,0,.011.246l0,.01a1.981,1.981,0,0,0,.416.992L33.943,70.172a2,2,0,0,0,3.428,0L56.18,38.889A1.988,1.988,0,0,0,56.6,37.9Z" transform="translate(990 434)" fill="#b2b5b2" fill-rule="evenodd"/>
  </g>
</svg>
