<svg xmlns="http://www.w3.org/2000/svg" width="108" height="96" viewBox="0 0 108 96">
  <g id="Group_57" data-name="Group 57" transform="translate(-793 -427)">
    <g id="allowances-2" transform="translate(793 427)">
      <path id="Path_60" data-name="Path 60" d="M0,0H108V96H0Z" fill="none" fill-rule="evenodd" opacity="0.557"/>
      <path id="Path_61" data-name="Path 61" d="M54,4A46,46,0,1,1,8,50,46,46,0,0,1,54,4" fill="#f7f5f5" fill-rule="evenodd"/>
      <path id="Path_64" data-name="Path 64" d="M89.737,19.335H79.651V9.248a2,2,0,0,0-4,0V19.335H65.564a2,2,0,1,0,0,4H75.651V33.421a2,2,0,0,0,4,0V23.335H89.737a2,2,0,0,0,0-4" fill="#008c73" fill-rule="evenodd"/>
    </g>
    <path id="Path_69" data-name="Path 69" d="M46.223,69.954H22.754L34.489,59.409ZM29.4,50.479c2.733-1.677,2.812-5.289,2.812-5.7a7.265,7.265,0,0,0-2.6-5.632A1.5,1.5,0,0,0,29.434,39a61.273,61.273,0,0,1-5.395-4.05H45.091a63.663,63.663,0,0,1-5.546,4.151,1.826,1.826,0,0,0-.17.132,6.982,6.982,0,0,0-2.608,5.543c0,.408.076,4.033,2.675,5.673,11.887,8.079,12.718,12.7,12.7,19.5h-.864L35.619,55.879a1.69,1.69,0,0,0-2.261,0L17.7,69.955h-.96c.024-7.366,1.2-11.708,12.665-19.478ZM52.242,19.607c-.014,4.653-.49,8.1-3.728,11.966H20.61c-3.433-4.064-3.82-7.557-3.861-11.966H52.241ZM56.7,69.955h-1.18c-.035-8.133-1.388-13.6-14.229-22.33-.935-.59-1.146-2.294-1.146-2.844A3.609,3.609,0,0,1,41.5,41.868l.011-.008C54.294,33.187,55.6,27.74,55.624,19.607H56.7a1.691,1.691,0,0,0,0-3.382H12.276a1.691,1.691,0,1,0,0,3.382h1.1c.123,8.142,1.494,13.6,14.082,22.142a3.913,3.913,0,0,1,1.375,3.023c-.007.55-.243,2.251-1.215,2.833l-.078.051c-12.848,8.7-14.16,14.152-14.184,22.3H12.276a1.691,1.691,0,1,0,0,3.382H56.7a1.691,1.691,0,1,0,0-3.382Z" transform="translate(804.739 443)" fill="#b2b5b2" fill-rule="evenodd"/>
  </g>
</svg>
