<svg xmlns="http://www.w3.org/2000/svg" width="32.177" height="38.437" viewBox="0 0 32.177 38.437">
  <path id="Path_69" data-name="Path 69" d="M34.57,52.387H18.775l7.9-7.1ZM23.248,39.279a4.7,4.7,0,0,0,1.893-3.835,4.89,4.89,0,0,0-1.747-3.791,1.01,1.01,0,0,0-.123-.1,41.239,41.239,0,0,1-3.631-2.726H33.808a42.848,42.848,0,0,1-3.733,2.794,1.229,1.229,0,0,0-.114.089,4.7,4.7,0,0,0-1.755,3.73c0,.274.051,2.714,1.8,3.818,8,5.438,8.56,8.545,8.551,13.125h-.582L27.434,42.913a1.137,1.137,0,0,0-1.522,0L15.37,52.387h-.646c.016-4.958.807-7.88,8.524-13.109ZM38.622,18.5c-.01,3.131-.33,5.451-2.509,8.053H17.332c-2.31-2.735-2.571-5.086-2.6-8.053H38.621Zm3,33.886h-.794c-.023-5.474-.934-9.155-9.577-15.029a2.561,2.561,0,0,1-.771-1.914,2.429,2.429,0,0,1,.91-1.961l.007-.006c8.6-5.836,9.483-9.5,9.5-14.977h.726a1.138,1.138,0,0,0,0-2.276h-29.9a1.138,1.138,0,0,0,0,2.276h.739c.083,5.48,1.005,9.153,9.478,14.9a2.634,2.634,0,0,1,.925,2.034,2.526,2.526,0,0,1-.818,1.907l-.052.034c-8.647,5.855-9.53,9.525-9.546,15.007h-.725a1.138,1.138,0,1,0,0,2.276h29.9a1.138,1.138,0,1,0,0-2.276Z" transform="translate(-10.585 -16.225)" fill="#008c73" fill-rule="evenodd"/>
</svg>
